<?xml version="1.0" encoding="utf-8"?>
<svg width="261" height="66" viewBox="0 0 261 66" fill="none" xmlns="http://www.w3.org/2000/svg" xmlns:xlink="http://www.w3.org/1999/xlink">
  <symbol id="logo-symbol-wordmark" viewBox="0 -6.411 285.4 66">
    <path d="M 77.545 35.701 C 73.415 35.701 70.052 34.469 67.457 32.003 C 64.863 29.542 63.566 26.264 63.566 22.171 L 63.566 21.464 C 63.566 18.713 64.114 16.255 65.207 14.09 C 66.301 11.924 67.85 10.256 69.852 9.083 C 71.862 7.91 74.149 7.324 76.716 7.324 C 80.568 7.324 83.601 8.506 85.812 10.868 C 88.023 13.224 89.13 16.571 89.13 20.905 L 89.13 23.89 L 71.198 23.89 C 71.441 25.675 72.173 27.109 73.399 28.189 C 74.623 29.269 76.17 29.808 78.044 29.808 C 80.944 29.808 83.208 28.787 84.839 26.75 L 88.537 30.769 C 87.408 32.321 85.88 33.528 83.95 34.395 C 82.027 35.266 79.89 35.701 77.545 35.701 Z M 76.69 13.244 C 75.194 13.244 73.985 13.731 73.059 14.706 C 72.129 15.686 71.534 17.088 71.275 18.906 L 81.742 18.906 L 81.742 18.324 C 81.707 16.707 81.257 15.454 80.388 14.566 C 79.518 13.685 78.286 13.244 76.69 13.244 Z M 101.338 35.192 L 93.792 35.192 L 93.792 -3.65 L 101.338 -3.65 L 101.338 35.192 Z M 120.497 35.701 C 116.367 35.701 113.005 34.469 110.409 32.003 C 107.815 29.542 106.519 26.264 106.519 22.171 L 106.519 21.464 C 106.519 18.713 107.064 16.255 108.159 14.09 C 109.254 11.924 110.803 10.256 112.805 9.083 C 114.808 7.91 117.095 7.324 119.667 7.324 C 123.514 7.324 126.547 8.506 128.764 10.868 C 130.975 13.224 132.081 16.571 132.081 20.905 L 132.081 23.89 L 114.142 23.89 C 114.385 25.675 115.118 27.109 116.341 28.189 C 117.566 29.269 119.115 29.808 120.988 29.808 C 123.887 29.808 126.152 28.787 127.782 26.75 L 131.481 30.769 C 130.352 32.321 128.826 33.528 126.901 34.395 C 124.973 35.266 122.837 35.701 120.497 35.701 Z M 119.634 13.244 C 118.143 13.244 116.933 13.731 116.003 14.706 C 115.078 15.686 114.487 17.088 114.225 18.906 L 124.685 18.906 L 124.685 18.324 C 124.652 16.707 124.2 15.454 123.331 14.566 C 122.462 13.685 121.231 13.244 119.634 13.244 Z M 148.065 29.808 C 149.452 29.808 150.578 29.435 151.442 28.689 C 152.31 27.949 152.761 26.965 152.796 25.738 L 159.852 25.738 C 159.836 27.59 159.316 29.287 158.295 30.827 C 157.269 32.372 155.867 33.569 154.09 34.419 C 152.308 35.274 150.341 35.701 148.192 35.701 C 144.164 35.701 140.988 34.457 138.665 31.97 C 136.34 29.483 135.178 26.045 135.178 21.661 L 135.178 21.184 C 135.178 16.97 136.331 13.605 138.639 11.089 C 140.945 8.58 144.114 7.324 148.141 7.324 C 151.661 7.324 154.485 8.297 156.612 10.243 C 158.738 12.193 159.82 14.785 159.852 18.019 L 152.796 18.019 C 152.761 16.605 152.31 15.454 151.442 14.566 C 150.578 13.685 149.433 13.244 148.006 13.244 C 146.258 13.244 144.935 13.864 144.037 15.101 C 143.147 16.34 142.701 18.35 142.701 21.134 L 142.701 21.891 C 142.701 24.708 143.142 26.73 144.029 27.958 C 144.915 29.191 146.26 29.808 148.065 29.808 Z M 173.154 1.101 L 173.154 7.835 L 177.968 7.835 L 177.968 13.193 L 173.154 13.193 L 173.154 26.848 C 173.154 27.857 173.354 28.581 173.755 29.018 C 174.156 29.458 174.919 29.676 176.048 29.676 C 176.877 29.676 177.614 29.619 178.256 29.503 L 178.256 35.044 C 176.785 35.482 175.266 35.701 173.704 35.701 C 168.423 35.701 165.733 33.112 165.631 27.933 L 165.631 13.193 L 161.519 13.193 L 161.519 7.835 L 165.631 7.835 L 165.631 1.101 L 173.154 1.101 Z M 189.079 7.835 L 189.316 10.991 C 191.33 8.546 194.029 7.324 197.413 7.324 C 200.399 7.324 202.618 8.177 204.074 9.88 C 205.535 11.58 206.282 14.126 206.316 17.517 L 206.316 35.192 L 198.793 35.192 L 198.793 17.691 C 198.793 16.14 198.447 15.015 197.752 14.321 C 197.059 13.618 195.905 13.268 194.291 13.268 C 192.17 13.268 190.582 14.145 189.528 15.899 L 189.528 35.192 L 182.006 35.192 L 182.006 7.835 L 189.079 7.835 Z M 210.843 21.258 C 210.843 18.545 211.382 16.126 212.46 13.999 C 213.531 11.878 215.08 10.235 217.104 9.067 C 219.125 7.906 221.47 7.324 224.145 7.324 C 227.947 7.324 231.05 8.453 233.453 10.71 C 235.857 12.97 237.195 16.037 237.473 19.918 L 237.524 21.792 C 237.524 25.991 236.315 29.358 233.901 31.896 C 231.492 34.433 228.258 35.701 224.197 35.701 C 220.135 35.701 216.892 34.435 214.473 31.903 C 212.053 29.377 210.843 25.939 210.843 21.587 L 210.843 21.258 Z M 218.366 21.792 C 218.366 24.385 218.868 26.369 219.871 27.744 C 220.882 29.12 222.323 29.808 224.197 29.808 C 226.018 29.808 227.443 29.128 228.469 27.769 C 229.49 26.414 230 24.245 230 21.258 C 230 18.716 229.49 16.742 228.469 15.339 C 227.443 13.942 226.002 13.244 224.145 13.244 C 222.306 13.244 220.882 13.939 219.871 15.331 C 218.868 16.717 218.366 18.871 218.366 21.792 Z M 266.649 25.253 L 270.347 7.835 L 277.607 7.835 L 270.422 35.192 L 264.126 35.192 L 258.788 17.97 L 253.457 35.192 L 247.178 35.192 L 239.993 7.835 L 247.263 7.835 L 250.927 25.228 L 256.08 7.835 L 261.521 7.835 L 266.649 25.253 Z"; fill="currentColor"></path>
    <path style="transform-box: fill-box; transform-origin: 50% 50%;" d="M 34.426 -5.598 L 35.825 -5.598 L 35.825 24.579 L 34.426 24.579 L 34.426 -5.598 Z M 54.464 48.48 L 53.359 49.338 L 34.856 25.499 L 35.961 24.641 L 54.464 48.48 Z M 51.668 47.464 L 51.698 48.862 L 21.528 49.495 L 21.498 48.097 L 51.668 47.464 Z M 53.616 47.81 L 52.28 47.396 L 61.219 18.574 L 62.556 18.988 L 53.616 47.81 Z M 62.143 15.033 L 61.316 16.161 L 36.974 -1.674 L 37.801 -2.802 L 62.143 15.033 Z M 18.9 46.486 L 17.577 46.94 L 7.777 18.399 L 9.1 17.945 L 18.9 46.486 Z M 34.659 23.99 L 34.27 25.333 L 5.288 16.925 L 5.678 15.582 L 34.659 23.99 Z M 35.002 25.48 L 36.114 26.329 L 17.797 50.311 L 16.685 49.462 L 35.002 25.48 Z M 62.028 15.197 L 62.462 16.527 L 33.779 25.903 L 33.344 24.573 L 62.028 15.197 Z M 32.766 -3.323 L 33.625 -2.219 L 9.821 16.328 L 8.961 15.224 L 32.766 -3.323 Z M 30.848 -2.279 L 10.095 14.13 M 39.356 28.323 C 37.552 30.414 34.395 30.647 32.304 28.843 C 30.213 27.04 29.98 23.882 31.783 21.791 C 33.587 19.7 36.744 19.467 38.835 21.271 C 40.926 23.075 41.159 26.232 39.356 28.323 Z M 22.699 52.224 C 20.895 54.315 17.738 54.548 15.647 52.744 C 13.556 50.94 13.323 47.783 15.126 45.692 C 16.93 43.601 20.087 43.368 22.178 45.172 C 24.269 46.975 24.502 50.133 22.699 52.224 Z M 11.679 20.021 C 9.875 22.112 6.718 22.345 4.627 20.542 C 2.536 18.738 2.303 15.581 4.107 13.49 C 5.91 11.399 9.067 11.166 11.158 12.969 C 13.249 14.773 13.482 17.93 11.679 20.021 Z M 56.826 51.806 C 55.023 53.897 51.865 54.13 49.774 52.327 C 47.683 50.523 47.45 47.366 49.254 45.275 C 51.058 43.184 54.215 42.951 56.306 44.754 C 58.397 46.558 58.63 49.715 56.826 51.806 Z M 66.576 19.045 C 64.772 21.136 61.615 21.369 59.524 19.566 C 57.433 17.762 57.2 14.605 59.003 12.514 C 60.807 10.423 63.964 10.19 66.055 11.993 C 68.146 13.797 68.379 16.954 66.576 19.045 Z M 38.637 -0.442 C 36.834 1.649 33.677 1.882 31.586 0.078 C 29.495 -1.726 29.262 -4.883 31.065 -6.974 C 32.869 -9.065 36.026 -9.298 38.117 -7.494 C 40.208 -5.691 40.441 -2.533 38.637 -0.442 Z" transform="matrix(0.757227, -0.653152, 0.653152, 0.757227, 0.000001, 0.000001)" fill="url(#paint0_linear_89_11)"></path>
  </symbol>
  <defs>
<linearGradient id="paint0_linear_89_11" x1="30.5" y1="0.0130005" x2="30.5" y2="65.013" gradientUnits="userSpaceOnUse">
<stop stop-color="#D86017"/>
<stop offset="1" stop-color="#D86017"/>
</linearGradient>
</defs></symbol><use xlink:href="#logo-symbol-wordmark"/>
</svg>