<svg width="261" height="66" viewBox="0 0 261 66" fill="none" xmlns="http://www.w3.org/2000/svg" xmlns:xlink="http://www.w3.org/1999/xlink">
<symbol id="logo-symbol-wordmark">
<svg version="1.1" id="svg1" width="261px" height="66" viewBox="0 0 261 66" xmlns="http://www.w3.org/2000/svg">
    <path style="stroke-width: 20.8; fill: rgb(215, 95, 23);" transform="rotate(-40.779664)" d="m 2.7440999,14.171713 h 1.398928 V 44.348589 H 2.7440999 Z M 22.781739,68.24984 21.676622,69.10758 3.173955,45.268638 4.2790715,44.410898 Z m -2.795688,-1.016666 0.02936,1.39862 -30.17023,0.633267 -0.02936,-1.39862 z m 1.947655,0.346846 -1.336137,-0.414415 8.939516,-28.822368 1.336136,0.414415 z M 30.460854,34.802467 29.634068,35.930928 5.2915463,18.095977 6.1183321,16.967516 Z m -43.242827,31.453087 -1.323103,0.454313 -9.800177,-28.541204 1.323102,-0.454313 z M 2.9770569,43.759526 2.5872721,45.103054 -26.394546,36.694841 l 0.389785,-1.343528 z m 0.3425519,1.490032 1.1117458,0.84913 -18.3169356,23.981946 -1.111746,-0.84913 z M 30.345396,34.966773 30.78003,36.29647 2.0965799,45.672157 1.6619454,44.34246 Z M 1.0832456,16.446757 1.9430523,17.550266 -21.861212,36.097525 -22.721019,34.994016 Z m 6.5900258,31.64565 A 5,5 0 0 1 0.62137737,48.612782 5,5 0 0 1 0.10100215,41.560888 5,5 0 0 1 7.1528962,41.040513 5,5 0 0 1 7.6732714,48.092407 Z M -8.9836902,71.993125 a 5,5 0 0 1 -7.0518938,0.520375 5,5 0 0 1 -0.520375,-7.051894 5,5 0 0 1 7.0518935,-0.520375 5,5 0 0 1 0.5203753,7.051894 z M -20.003504,39.790835 a 5,5 0 0 1 -7.051894,0.520375 5,5 0 0 1 -0.520376,-7.051894 5,5 0 0 1 7.051895,-0.520375 5,5 0 0 1 0.520375,7.051894 z m 45.147296,31.784977 a 5,5 0 0 1 -7.051894,0.520375 5,5 0 0 1 -0.520375,-7.051894 5,5 0 0 1 7.051894,-0.520375 5,5 0 0 1 0.520375,7.051894 z m 9.749463,-32.760939 a 5,5 0 0 1 -7.051894,0.520376 5,5 0 0 1 -0.520375,-7.051895 5,5 0 0 1 7.051894,-0.520375 5,5 0 0 1 0.520375,7.051894 z M 6.9550996,19.327102 a 5,5 0 0 1 -7.05189408,0.520376 5,5 0 0 1 -0.52037492,-7.051894 5,5 0 0 1 7.0518937,-0.520376 5,5 0 0 1 0.5203753,7.051894 z" fill="#6364FF"/>
  <path d="M 67.002 13.226 L 67.002 20.751 L 77.107 20.751 L 77.107 25.524 L 67.002 25.524 L 67.002 33.479 L 78.397 33.479 L 78.397 38.381 L 60.982 38.381 L 60.982 8.324 L 78.397 8.324 L 78.397 13.226 Z M 89.876 6.561 L 89.876 38.381 L 83.856 38.381 L 83.856 6.561 Z M 117.955 25.954 Q 117.955 27.244 117.783 28.276 L 100.368 28.276 Q 100.583 30.856 102.174 32.318 Q 103.765 33.78 106.087 33.78 Q 109.441 33.78 110.86 30.899 L 117.353 30.899 Q 116.321 34.339 113.397 36.554 Q 110.473 38.768 106.216 38.768 Q 102.776 38.768 100.046 37.242 Q 97.315 35.715 95.789 32.92 Q 94.262 30.125 94.262 26.47 Q 94.262 22.772 95.767 19.977 Q 97.272 17.182 99.981 15.677 Q 102.69 14.172 106.216 14.172 Q 109.613 14.172 112.301 15.634 Q 114.988 17.096 116.472 19.783 Q 117.955 22.471 117.955 25.954 Z M 111.72 24.234 Q 111.677 21.912 110.043 20.514 Q 108.409 19.117 106.044 19.117 Q 103.808 19.117 102.282 20.471 Q 100.755 21.826 100.411 24.234 Z M 120.789 26.47 Q 120.789 22.772 122.294 19.998 Q 123.799 17.225 126.465 15.698 Q 129.131 14.172 132.571 14.172 Q 137 14.172 139.902 16.386 Q 142.805 18.601 143.794 22.6 L 137.301 22.6 Q 136.785 21.052 135.559 20.17 Q 134.334 19.289 132.528 19.289 Q 129.948 19.289 128.443 21.159 Q 126.938 23.03 126.938 26.47 Q 126.938 29.867 128.443 31.738 Q 129.948 33.608 132.528 33.608 Q 136.183 33.608 137.301 30.34 L 143.794 30.34 Q 142.805 34.21 139.881 36.489 Q 136.957 38.768 132.571 38.768 Q 129.131 38.768 126.465 37.242 Q 123.799 35.715 122.294 32.942 Q 120.789 30.168 120.789 26.47 Z M 155.231 19.504 L 155.231 31.028 Q 155.231 32.232 155.812 32.77 Q 156.392 33.307 157.768 33.307 L 160.563 33.307 L 160.563 38.381 L 156.779 38.381 Q 149.168 38.381 149.168 30.985 L 149.168 19.504 L 146.33 19.504 L 146.33 14.559 L 149.168 14.559 L 149.168 8.668 L 155.231 8.668 L 155.231 14.559 L 160.563 14.559 L 160.563 19.504 Z M 178.108 14.215 Q 182.365 14.215 184.988 16.902 Q 187.611 19.59 187.611 24.406 L 187.611 38.381 L 181.591 38.381 L 181.591 25.223 Q 181.591 22.385 180.172 20.858 Q 178.753 19.332 176.302 19.332 Q 173.808 19.332 172.368 20.858 Q 170.927 22.385 170.927 25.223 L 170.927 38.381 L 164.907 38.381 L 164.907 14.559 L 170.927 14.559 L 170.927 17.526 Q 172.131 15.978 174.002 15.096 Q 175.872 14.215 178.108 14.215 Z M 203.908 38.768 Q 200.468 38.768 197.716 37.242 Q 194.964 35.715 193.394 32.92 Q 191.825 30.125 191.825 26.47 Q 191.825 22.815 193.437 20.02 Q 195.05 17.225 197.845 15.698 Q 200.64 14.172 204.08 14.172 Q 207.52 14.172 210.315 15.698 Q 213.11 17.225 214.722 20.02 Q 216.335 22.815 216.335 26.47 Q 216.335 30.125 214.679 32.92 Q 213.024 35.715 210.207 37.242 Q 207.391 38.768 203.908 38.768 Z M 203.908 33.522 Q 205.542 33.522 206.982 32.727 Q 208.423 31.931 209.283 30.34 Q 210.143 28.749 210.143 26.47 Q 210.143 23.073 208.358 21.245 Q 206.574 19.418 203.994 19.418 Q 201.414 19.418 199.672 21.245 Q 197.931 23.073 197.931 26.47 Q 197.931 29.867 199.629 31.695 Q 201.328 33.522 203.908 33.522 Z M 253.786 14.559 L 246.82 38.381 L 240.327 38.381 L 235.984 21.74 L 231.641 38.381 L 225.105 38.381 L 218.096 14.559 L 224.202 14.559 L 228.416 32.705 L 232.974 14.559 L 239.338 14.559 L 243.81 32.662 L 248.024 14.559 Z" fill="currentColor"/>
</symbol><use xlink:href="#logo-symbol-wordmark"/>
</svg>