<svg xmlns="http://www.w3.org/2000/svg" xmlns:xlink="http://www.w3.org/1999/xlink" 
width="79" height="79" viewBox="0 0 79 79"><symbol id="logo-symbol-icon">
  <g  transform="matrix(1.191998, 0, 0, 1.147858, 0.001138, 0.96057)">
    <path transform="rotate(-40.779664)" d="m 2.7440999,14.171713 h 1.398928 V 44.348589 H 2.7440999 Z M 22.781739,68.24984 21.676622,69.10758 3.173955,45.268638 4.2790715,44.410898 Z m -2.795688,-1.016666 0.02936,1.39862 -30.17023,0.633267 -0.02936,-1.39862 z m 1.947655,0.346846 -1.336137,-0.414415 8.939516,-28.822368 1.336136,0.414415 z M 30.460854,34.802467 29.634068,35.930928 5.2915463,18.095977 6.1183321,16.967516 Z m -43.242827,31.453087 -1.323103,0.454313 -9.800177,-28.541204 1.323102,-0.454313 z M 2.9770569,43.759526 2.5872721,45.103054 -26.394546,36.694841 l 0.389785,-1.343528 z m 0.3425519,1.490032 1.1117458,0.84913 -18.3169356,23.981946 -1.111746,-0.84913 z M 30.345396,34.966773 30.78003,36.29647 2.0965799,45.672157 1.6619454,44.34246 Z M 1.0832456,16.446757 1.9430523,17.550266 -21.861212,36.097525 -22.721019,34.994016 Z m 6.5900258,31.64565 A 5,5 0 0 1 0.62137737,48.612782 5,5 0 0 1 0.10100215,41.560888 5,5 0 0 1 7.1528962,41.040513 5,5 0 0 1 7.6732714,48.092407 Z M -8.9836902,71.993125 a 5,5 0 0 1 -7.0518938,0.520375 5,5 0 0 1 -0.520375,-7.051894 5,5 0 0 1 7.0518935,-0.520375 5,5 0 0 1 0.5203753,7.051894 z M -20.003504,39.790835 a 5,5 0 0 1 -7.051894,0.520375 5,5 0 0 1 -0.520376,-7.051894 5,5 0 0 1 7.051895,-0.520375 5,5 0 0 1 0.520375,7.051894 z m 45.147296,31.784977 a 5,5 0 0 1 -7.051894,0.520375 5,5 0 0 1 -0.520375,-7.051894 5,5 0 0 1 7.051894,-0.520375 5,5 0 0 1 0.520375,7.051894 z m 9.749463,-32.760939 a 5,5 0 0 1 -7.051894,0.520376 5,5 0 0 1 -0.520375,-7.051895 5,5 0 0 1 7.051894,-0.520375 5,5 0 0 1 0.520375,7.051894 z M 6.9550996,19.327102 a 5,5 0 0 1 -7.05189408,0.520376 5,5 0 0 1 -0.52037492,-7.051894 5,5 0 0 1 7.0518937,-0.520376 5,5 0 0 1 0.5203753,7.051894 z" fill="currentColor"/>
  </g>

  </symbol><use xlink:href="#logo-symbol-icon"/></svg>
