<?xml version="1.0" encoding="UTF-8" standalone="no"?>
<!-- Created with Inkscape (http://www.inkscape.org/) -->

<svg
   version="1.1"
   id="svg1"
   width="66"
   height="66"
   viewBox="0 0 66 66"
   sodipodi:docname="logo-symbol-icon.svg"
   inkscape:version="1.3 (0e150ed6c4, 2023-07-21)"
   xmlns:inkscape="http://www.inkscape.org/namespaces/inkscape"
   xmlns:sodipodi="http://sodipodi.sourceforge.net/DTD/sodipodi-0.dtd"
   xmlns="http://www.w3.org/2000/svg"
   xmlns:svg="http://www.w3.org/2000/svg">
  <defs
     id="defs1" />
  <sodipodi:namedview
     id="namedview1"
     pagecolor="#ffffff"
     bordercolor="#000000"
     borderopacity="0.17647059"
     inkscape:showpageshadow="2"
     inkscape:pageopacity="0.0"
     inkscape:pagecheckerboard="0"
     inkscape:deskcolor="#d1d1d1"
     inkscape:zoom="3.5382431"
     inkscape:cx="143.29145"
     inkscape:cy="115.45278"
     inkscape:window-width="1920"
     inkscape:window-height="986"
     inkscape:window-x="-11"
     inkscape:window-y="-11"
     inkscape:window-maximized="1"
     inkscape:current-layer="layer1" />
  <g
     inkscape:groupmode="layer"
     id="layer1"
     inkscape:label="Image 1"
     style="fill:#d86017;fill-opacity:1">
    <path
       id="rect3-3-7-94-2"
       style="stroke-width:20.8;fill:#000000"
       transform="rotate(-40.779664)"
       d="m 2.7440999,14.171713 h 1.398928 V 44.348589 H 2.7440999 Z M 22.781739,68.24984 21.676622,69.10758 3.173955,45.268638 4.2790715,44.410898 Z m -2.795688,-1.016666 0.02936,1.39862 -30.17023,0.633267 -0.02936,-1.39862 z m 1.947655,0.346846 -1.336137,-0.414415 8.939516,-28.822368 1.336136,0.414415 z M 30.460854,34.802467 29.634068,35.930928 5.2915463,18.095977 6.1183321,16.967516 Z m -43.242827,31.453087 -1.323103,0.454313 -9.800177,-28.541204 1.323102,-0.454313 z M 2.9770569,43.759526 2.5872721,45.103054 -26.394546,36.694841 l 0.389785,-1.343528 z m 0.3425519,1.490032 1.1117458,0.84913 -18.3169356,23.981946 -1.111746,-0.84913 z M 30.345396,34.966773 30.78003,36.29647 2.0965799,45.672157 1.6619454,44.34246 Z M 1.0832456,16.446757 1.9430523,17.550266 -21.861212,36.097525 -22.721019,34.994016 Z m 6.5900258,31.64565 A 5,5 0 0 1 0.62137737,48.612782 5,5 0 0 1 0.10100215,41.560888 5,5 0 0 1 7.1528962,41.040513 5,5 0 0 1 7.6732714,48.092407 Z M -8.9836902,71.993125 a 5,5 0 0 1 -7.0518938,0.520375 5,5 0 0 1 -0.520375,-7.051894 5,5 0 0 1 7.0518935,-0.520375 5,5 0 0 1 0.5203753,7.051894 z M -20.003504,39.790835 a 5,5 0 0 1 -7.051894,0.520375 5,5 0 0 1 -0.520376,-7.051894 5,5 0 0 1 7.051895,-0.520375 5,5 0 0 1 0.520375,7.051894 z m 45.147296,31.784977 a 5,5 0 0 1 -7.051894,0.520375 5,5 0 0 1 -0.520375,-7.051894 5,5 0 0 1 7.051894,-0.520375 5,5 0 0 1 0.520375,7.051894 z m 9.749463,-32.760939 a 5,5 0 0 1 -7.051894,0.520376 5,5 0 0 1 -0.520375,-7.051895 5,5 0 0 1 7.051894,-0.520375 5,5 0 0 1 0.520375,7.051894 z M 6.9550996,19.327102 a 5,5 0 0 1 -7.05189408,0.520376 5,5 0 0 1 -0.52037492,-7.051894 5,5 0 0 1 7.0518937,-0.520376 5,5 0 0 1 0.5203753,7.051894 z" />
  </g>
</svg>
